<?xml version="1.0" encoding="UTF-8"?>
<!-- Generator: visioncortex VTracer 0.6.3 -->
<svg version="1.1" xmlns="http://www.w3.org/2000/svg" width="1280" height="800">
<path d="M0 0 C422.4 0 844.8 0 1280 0 C1280 264 1280 528 1280 800 C857.6 800 435.2 800 0 800 C0 536 0 272 0 0 Z " fill="#FCFCFC" transform="translate(0,0)"/>
<path d="M0 0 C1.63 -0 3.26 -0.01 4.89 -0.02 C9.3 -0.03 13.71 -0.03 18.12 -0.04 C20.88 -0.04 23.64 -0.05 26.4 -0.05 C35.07 -0.06 43.74 -0.07 52.4 -0.08 C62.36 -0.08 72.33 -0.1 82.29 -0.13 C90.01 -0.15 97.74 -0.16 105.47 -0.16 C110.07 -0.16 114.67 -0.17 119.27 -0.19 C123.61 -0.2 127.95 -0.21 132.29 -0.2 C133.87 -0.2 135.44 -0.2 137.02 -0.21 C168.58 -0.4 197.05 10.17 219.96 32.13 C243.99 56.05 255.17 88.15 255.26 121.51 C255.23 154.88 243.12 183.2 220.19 207.35 C190.31 236.1 155.71 239.65 116.12 239.56 C111.58 239.56 107.03 239.56 102.49 239.57 C94.87 239.57 87.25 239.57 79.63 239.55 C70.87 239.54 62.11 239.54 53.34 239.56 C45.77 239.57 38.19 239.57 30.61 239.57 C26.11 239.56 21.61 239.56 17.11 239.57 C-23.83 239.65 -58.02 234.06 -88.44 204.29 C-111.01 181.26 -121.65 149.13 -121.41 117.28 C-120.57 83.23 -105.25 51.4 -80.87 27.97 C-58.02 7.97 -29.84 0.02 0 0 Z " fill="#FDFDFD" transform="translate(535.060302734375,268.8388671875)"/>
<path d="M0 0 C422.4 0 844.8 0 1280 0 C1280 15.84 1280 31.68 1280 48 C857.6 48 435.2 48 0 48 C0 32.16 0 16.32 0 0 Z " fill="#4B4D4D" transform="translate(0,752)"/>
<path d="M0 0 C1.63 -0 3.26 -0.01 4.89 -0.02 C9.3 -0.03 13.71 -0.03 18.12 -0.04 C20.88 -0.04 23.64 -0.05 26.4 -0.05 C35.07 -0.06 43.74 -0.07 52.4 -0.08 C62.36 -0.08 72.33 -0.1 82.29 -0.13 C90.01 -0.15 97.74 -0.16 105.47 -0.16 C110.07 -0.16 114.67 -0.17 119.27 -0.19 C123.61 -0.2 127.95 -0.21 132.29 -0.2 C133.87 -0.2 135.44 -0.2 137.02 -0.21 C168.58 -0.4 197.05 10.17 219.96 32.13 C243.99 56.05 255.17 88.15 255.26 121.51 C255.23 154.88 243.12 183.2 220.19 207.35 C190.31 236.1 155.71 239.65 116.12 239.56 C111.58 239.56 107.03 239.56 102.49 239.57 C94.87 239.57 87.25 239.57 79.63 239.55 C70.87 239.54 62.11 239.54 53.34 239.56 C45.77 239.57 38.19 239.57 30.61 239.57 C26.11 239.56 21.61 239.56 17.11 239.57 C-23.83 239.65 -58.02 234.06 -88.44 204.29 C-111.01 181.26 -121.65 149.13 -121.41 117.28 C-120.57 83.23 -105.25 51.4 -80.87 27.97 C-58.02 7.97 -29.84 0.02 0 0 Z M-59.06 66.16 C-72 82.04 -77.66 99.69 -77.5 119.97 C-77.49 120.64 -77.49 121.3 -77.49 121.98 C-77.38 135.53 -75.18 146.17 -69.37 158.41 C-68.94 159.33 -68.94 159.33 -68.49 160.27 C-66.29 164.56 -63.63 167.69 -60.34 171.22 C-54.8 177.83 -54.98 183.7 -55.31 192.04 C-55.91 201.2 -55.91 201.2 -52.98 209.54 C-49.31 211.58 -47.24 211.47 -43.06 211.16 C-40.54 210.32 -38.23 209.43 -35.81 208.36 C-34.38 207.77 -32.96 207.19 -31.53 206.61 C-30.79 206.3 -30.04 205.99 -29.27 205.68 C-10.05 197.97 7.08 196.36 27.6 196.77 C31.83 196.84 36.05 196.83 40.28 196.83 C48.24 196.84 56.2 196.91 64.16 197.01 C78.45 197.18 92.74 197.24 107.02 197.28 C112.01 197.3 117 197.34 121.99 197.4 C125.09 197.44 128.2 197.46 131.3 197.48 C132.72 197.49 134.14 197.51 135.57 197.54 C155.88 197.92 171.98 191.12 187.19 177.85 C200.54 164.8 208.98 147.71 209.34 128.97 C209.35 126.78 209.35 124.58 209.33 122.39 C209.31 120.16 209.33 117.94 209.35 115.72 C209.38 94.28 201.77 78.01 186.75 62.85 C186.09 62.21 185.42 61.56 184.73 60.9 C183.29 59.5 181.91 58.03 180.56 56.54 C165.8 43.18 145.19 40.85 126.14 40.89 C124.69 40.88 123.25 40.88 121.8 40.87 C117.91 40.86 114.02 40.86 110.13 40.86 C106.86 40.86 103.6 40.86 100.33 40.85 C92.62 40.84 84.91 40.84 77.2 40.85 C69.28 40.85 61.36 40.84 53.45 40.82 C46.61 40.8 39.78 40.79 32.95 40.8 C28.88 40.8 24.82 40.8 20.75 40.78 C16.93 40.77 13.1 40.77 9.27 40.79 C7.88 40.79 6.49 40.78 5.1 40.78 C-19.12 40.64 -42.21 48.1 -59.06 66.16 Z " fill="#262729" transform="translate(535.060302734375,268.8388671875)"/>
<path d="M0 0 C201.96 0 403.92 0 612 0 C612 15.84 612 31.68 612 48 C410.7 48 209.4 48 2 48 C1.67 32.82 1.34 17.64 1 2 C0.67 1.34 0.34 0.68 0 0 Z " fill="#262729" transform="translate(668,752)"/>
<path d="M0 0 C1.24 -0.01 2.48 -0.01 3.76 -0.02 C5.11 -0.02 6.47 -0.02 7.83 -0.02 C9.27 -0.03 10.71 -0.03 12.16 -0.04 C16.06 -0.05 19.97 -0.06 23.88 -0.06 C26.33 -0.06 28.78 -0.07 31.23 -0.07 C38.91 -0.08 46.59 -0.09 54.27 -0.1 C63.1 -0.1 71.93 -0.12 80.76 -0.15 C87.61 -0.17 94.45 -0.18 101.3 -0.18 C105.38 -0.18 109.46 -0.19 113.54 -0.21 C117.38 -0.22 121.23 -0.23 125.07 -0.22 C126.47 -0.22 127.87 -0.22 129.27 -0.23 C148.48 -0.36 168.64 3.2 183.61 16.14 C185.49 18.04 187.21 19.99 188.9 22.05 C190.71 24.26 192.65 26.31 194.61 28.39 C201.7 36.36 208.13 46.16 207.61 57.14 C205.43 54.28 203.38 51.36 201.36 48.39 C193.46 37.16 184.91 30.19 172.73 23.89 C172.11 23.56 171.49 23.23 170.85 22.89 C159.92 17.45 148.74 16.69 136.74 16.72 C135.18 16.71 133.62 16.7 132.06 16.69 C127.85 16.67 123.65 16.67 119.44 16.67 C115.91 16.67 112.39 16.66 108.86 16.65 C100.52 16.64 92.19 16.63 83.85 16.64 C75.3 16.65 66.74 16.62 58.18 16.59 C50.8 16.56 43.42 16.54 36.04 16.55 C31.64 16.55 27.25 16.54 22.86 16.52 C18.72 16.5 14.58 16.5 10.44 16.52 C8.94 16.52 7.44 16.52 5.93 16.5 C-13.68 16.33 -30.7 22.16 -45.09 35.84 C-45.85 36.6 -46.61 37.36 -47.39 38.14 C-48.09 38.83 -48.79 39.51 -49.51 40.22 C-61.29 52.57 -68.97 70.11 -69.71 87.22 C-69.75 88.15 -69.79 89.09 -69.83 90.04 C-69.87 91 -69.91 91.96 -69.95 92.95 C-70 93.93 -70.04 94.91 -70.08 95.92 C-70.19 98.33 -70.29 100.73 -70.39 103.14 C-71.38 103.14 -72.37 103.14 -73.39 103.14 C-79.61 80.3 -76.11 55.3 -64.49 34.95 C-53.73 17.23 -36.12 7.06 -16.57 1.83 C-11.04 0.63 -5.66 0.02 0 0 Z " fill="#E3E3E3" transform="translate(533.3907318115234,309.85955810546875)"/>
<path d="M0 0 C6.18 5.54 10.19 12.8 10.96 21.05 C11.04 28.48 11.09 34.33 6.63 40.46 C5.91 41.51 5.19 42.56 4.44 43.65 C-1.48 49.57 -6.41 51.78 -14.87 52.09 C-21.62 51.85 -26.03 50.51 -31.37 46.46 C-31.94 46.09 -32.52 45.72 -33.11 45.33 C-38.52 41.49 -40.53 36.09 -41.98 29.86 C-43.18 21.59 -41.41 14.06 -36.79 7.07 C-31.91 1.13 -26.24 -2.69 -18.61 -4.35 C-12.35 -4.88 -5.32 -3.41 0 0 Z " fill="#262729" transform="translate(685.37109375,364.5390625)"/>
<path d="M0 0 C7.03 6.05 12.07 12.5 13.07 21.94 C13.29 29.34 13.05 35.21 8.69 41.31 C8.15 42.18 7.62 43.05 7.06 43.94 C1.16 49.84 -4.3 52.71 -12.75 53.06 C-21.68 52.68 -27.73 49.59 -34.25 43.62 C-38.37 37 -41.78 29.23 -40.31 21.31 C-37.89 12.69 -34.72 5.66 -27.31 0.31 C-17.73 -4.03 -9.47 -4.82 0 0 Z " fill="#262729" transform="translate(535.3125,363.6875)"/>
<path d="M0 0 C3.32 2.45 4.96 5.01 6 9 C5.73 11.01 5.41 13.01 5 15 C5.33 15.33 5.66 15.66 6 16 C6.58 21.43 6.45 25.54 3 30 C3.77 30.96 3.77 30.96 4.56 31.94 C6.35 35.76 5.91 38.05 5.23 42.11 C5.15 42.73 5.08 43.36 5 44 C5.49 44.5 5.49 44.5 6 45 C6.15 49.58 5.95 53.51 5 58 C5.49 58.5 5.49 58.5 6 59 C6.07 61.86 6.09 64.7 6.06 67.56 C6.06 68.37 6.05 69.18 6.05 70.01 C6.04 72 6.02 74 6 76 C4.52 75.01 4.52 75.01 3 74 C2.67 74.33 2.34 74.66 2 75 C-0.84 75.28 -3.68 75.45 -6.53 75.62 C-7.35 75.75 -8.16 75.87 -9 76 C-9.5 76.99 -9.5 76.99 -10 78 C-10.66 78 -11.32 78 -12 78 C-12 77.34 -12 76.68 -12 76 C-12.66 76 -13.32 76 -14 76 C-14.69 62.04 -14.69 62.04 -12.12 58.12 C-11.42 57.42 -10.72 56.72 -10 56 C-9.34 56 -8.68 56 -8 56 C-8 55.34 -8 54.68 -8 54 C-8.62 53.77 -9.24 53.55 -9.88 53.31 C-12.73 51.55 -13.19 50.23 -14 47 C-13.73 44.99 -13.41 42.99 -13 41 C-13.33 40.67 -13.66 40.34 -14 40 C-14.44 35.2 -13.44 33.03 -11 29 C-11.25 26.43 -12.22 24.46 -13.19 22.06 C-14.15 18.44 -13.44 17.33 -12 14 C-12.66 13.01 -13.32 12.02 -14 11 C-14.12 7.81 -14.12 7.81 -14 5 C-13.34 4.67 -12.68 4.34 -12 4 C-11.67 3.34 -11.34 2.68 -11 2 C-8.76 -2.47 -4.15 -1.06 0 0 Z " fill="#E2E2E2" transform="translate(34,498)"/>
<path d="M0 0 C1 -0 2 -0.01 3.02 -0.01 C4.65 -0.01 4.65 -0.01 6.31 -0 C7.42 -0 8.52 -0.01 9.66 -0.01 C12.01 -0.01 14.35 -0.01 16.7 -0 C20.3 0 23.9 -0 27.5 -0.01 C29.77 -0.01 32.04 -0.01 34.31 -0 C35.94 -0.01 35.94 -0.01 37.6 -0.01 C38.6 -0.01 39.6 -0 40.62 0 C41.51 0 42.39 0 43.3 0 C45.31 0.13 45.31 0.13 46.31 1.13 C47 9 44.73 14.2 39.94 20.38 C34.27 26.31 29.38 28.29 21.31 28.57 C12.17 28.66 6.03 25.53 -0.62 19.44 C-3.55 14.74 -7.2 8.57 -6.35 2.86 C-5.04 -0.55 -3.43 0 0 0 Z " fill="#262729" transform="translate(575.6875,402.87060546875)"/>
<path d="M0 0 C0.99 0.33 1.98 0.66 3 1 C2.88 1.65 2.76 2.31 2.63 2.98 C2.47 3.9 2.3 4.81 2.12 5.75 C1.96 6.63 1.8 7.51 1.63 8.42 C1.42 9.6 1.22 10.78 1 12 C0.83 12.87 0.67 13.74 0.5 14.63 C-0.84 21.96 -1.39 29.05 -1.38 36.5 C-1.37 37.62 -1.37 38.74 -1.37 39.9 C-1.23 50.27 0.44 59.98 3 70 C3.38 71.52 3.76 73.04 4.13 74.55 C4.42 75.69 4.71 76.83 5 78 C-2.51 77.22 -8.72 72.95 -13.53 67.16 C-20.97 54.77 -20.54 35.04 -18.57 20.95 C-16.82 14.04 -12.85 7.81 -7.06 3.59 C-5.19 2.5 -5.19 2.5 -2 1 C-1.34 0.67 -0.68 0.34 0 0 Z " fill="#262729" transform="translate(409,353)"/>
<path d="M0 0 C4.4 0.38 7.8 2.03 11 5 C17.14 12.61 20.3 18.58 20.37 28.45 C20.38 29.67 20.38 29.67 20.4 30.91 C20.41 32.63 20.42 34.35 20.43 36.06 C20.44 38.66 20.49 41.26 20.54 43.86 C20.65 55.26 19.52 63.23 11.56 71.94 C7.36 75.81 3.83 78 -2 78 C-1.41 71.99 -0.18 66.3 1.28 60.44 C5.11 42.09 4.47 20.89 -0.61 2.83 C-0.74 2.23 -0.87 1.62 -1 1 C-0.67 0.67 -0.34 0.34 0 0 Z " fill="#262729" transform="translate(794,353)"/>
<path d="M0 0 C0.03 3.4 0.05 6.79 0.06 10.19 C0.07 11.15 0.08 12.11 0.09 13.1 C0.09 14.49 0.09 14.49 0.1 15.92 C0.11 17.2 0.11 17.2 0.11 18.5 C0 21 0 21 -0.57 23.76 C-0.71 24.5 -0.85 25.24 -1 26 C-0.67 26.33 -0.34 26.66 0 27 C0.1 29.59 0.14 32.16 0.12 34.75 C0.13 35.83 0.13 35.83 0.14 36.92 C0.13 40.76 -0.18 44.26 -1 48 C-1.06 49.44 -1.09 50.88 -1.06 52.31 C-1.04 53.53 -1.02 54.75 -1 56 C-2.65 56.66 -4.3 57.32 -6 58 C-6.66 56.02 -7.32 54.04 -8 52 C-10.87 54.72 -10.87 54.72 -13 58 C-16.38 57.69 -16.38 57.69 -20 57 C-22.61 53.08 -21.79 50.38 -21 46 C-20.88 45.22 -20.75 44.43 -20.62 43.62 C-20 42 -20 42 -17 40 C-15.88 36.34 -15.91 32.8 -16 29 C-15.34 28.67 -14.68 28.34 -14 28 C-13.67 27.34 -13.34 26.68 -13 26 C-13.45 25.3 -13.91 24.6 -14.38 23.88 C-16.48 20.15 -16.64 17.25 -17 13 C-19.48 12.01 -19.48 12.01 -22 11 C-21.67 9.68 -21.34 8.36 -21 7 C-20.67 7.33 -20.34 7.66 -20 8 C-17.99 7.71 -15.99 7.38 -14 7 C-14.66 6.01 -15.32 5.02 -16 4 C-15.67 3.01 -15.34 2.02 -15 1 C-13.38 0.38 -13.38 0.38 -11 0 C-9.84 -0.21 -8.69 -0.41 -7.5 -0.62 C-4.4 -0.96 -2.88 -0.85 0 0 Z " fill="#E2E2E2" transform="translate(40,644)"/>
<path d="M0 0 C3.27 0.49 4.59 1.04 7.44 2.94 C7.74 7.56 7.37 11.41 6.44 15.94 C6.77 16.6 7.1 17.26 7.44 17.94 C7.53 19.47 7.57 21.01 7.57 22.55 C7.57 23.93 7.57 23.93 7.57 25.33 C7.57 26.3 7.57 27.26 7.56 28.25 C7.57 29.68 7.57 29.68 7.57 31.13 C7.57 32.05 7.57 32.98 7.57 33.93 C7.57 34.77 7.57 35.61 7.57 36.47 C7.44 38.94 7.44 38.94 6.44 43.94 C-0.49 43.94 -7.42 43.94 -14.56 43.94 C-14.23 43.28 -13.9 42.62 -13.56 41.94 C-10.5 41.31 -10.5 41.31 -7.56 40.94 C-7.89 40.28 -8.22 39.62 -8.56 38.94 C-8.6 36.94 -8.61 34.94 -8.56 32.94 C-7.57 32.44 -7.57 32.44 -6.56 31.94 C-4.92 30.54 -4.92 30.54 -3.56 28.94 C-3.56 28.28 -3.56 27.62 -3.56 26.94 C-7.19 26.94 -10.82 26.94 -14.56 26.94 C-14.56 25.95 -14.56 24.96 -14.56 23.94 C-12.91 23.61 -11.26 23.28 -9.56 22.94 C-8.9 20.96 -8.24 18.98 -7.56 16.94 C-6.9 16.94 -6.24 16.94 -5.56 16.94 C-6.06 16.07 -6.55 15.21 -7.06 14.31 C-8.66 10.72 -9.14 8.81 -8.56 4.94 C-6.4 0.52 -4.73 -0.43 0 0 Z " fill="#E3E3E3" transform="translate(32.5625,708.0625)"/>
<path d="M0 0 C3.32 2.45 4.96 5.01 6 9 C5.73 11.01 5.41 13.01 5 15 C5.33 15.33 5.66 15.66 6 16 C6.58 21.43 6.45 25.54 3 30 C3.77 31.08 3.77 31.08 4.56 32.19 C6.21 35.42 6.06 36.62 5 40 C3.52 40.5 3.52 40.5 2 41 C1.38 39.36 1.38 39.36 0.75 37.69 C-0.66 34.47 -1.72 32.55 -5 31 C-8.67 30.75 -8.67 30.75 -12 31 C-11.77 30.32 -11.55 29.64 -11.31 28.94 C-10.73 25.81 -10.73 25.81 -12.56 22.5 C-14 19 -14 19 -13.06 16.25 C-12.71 15.51 -12.36 14.76 -12 14 C-12.66 13.01 -13.32 12.02 -14 11 C-14.12 7.81 -14.12 7.81 -14 5 C-13.34 4.67 -12.68 4.34 -12 4 C-11.67 3.34 -11.34 2.68 -11 2 C-8.76 -2.47 -4.15 -1.06 0 0 Z " fill="#E3E3E3" transform="translate(34,498)"/>
<path d="M0 0 C2.71 1.18 3.65 2.24 5 4.88 C4.62 8.06 4.62 8.06 4 10.88 C4.33 11.21 4.66 11.53 5 11.88 C5.04 13.87 5.04 15.88 5 17.88 C4.67 17.22 4.34 16.55 4 15.88 C3.67 16.53 3.34 17.2 3 17.88 C2.34 17.88 1.68 17.88 1 17.88 C1 18.53 1 19.2 1 19.88 C1.66 20.53 2.32 21.2 3 21.88 C-0.7 22.83 -3.3 22.83 -7 21.88 C-7 21.22 -7 20.55 -7 19.88 C-7.99 19.88 -8.98 19.88 -10 19.88 C-9.67 18.88 -9.34 17.89 -9 16.88 C-9.66 16.54 -10.32 16.22 -11 15.88 C-10.67 14.23 -10.34 12.58 -10 10.88 C-10.66 10.54 -11.32 10.22 -12 9.88 C-12 6.9 -12 3.93 -12 0.88 C-9.47 2.14 -9.24 3.4 -8 5.88 C-7.34 6.21 -6.68 6.53 -6 6.88 C-5.85 5.7 -5.85 5.7 -5.69 4.5 C-4.83 1.23 -3.55 -0.22 0 0 Z " fill="#E0E0E0" transform="translate(32,601.125)"/>
<path d="M0 0 C0 0.66 0 1.32 0 2 C0.66 2.33 1.32 2.66 2 3 C2 4.65 1.92 6.29 1.81 7.94 C2.03 11.48 2.59 11.7 5 14 C4.69 16.19 4.69 16.19 4 18 C3.67 17.34 3.34 16.68 3 16 C2.67 16.33 2.34 16.66 2 17 C-1.1 17.28 -4.2 17.45 -7.31 17.62 C-8.2 17.75 -9.09 17.87 -10 18 C-10.33 18.66 -10.66 19.32 -11 20 C-11.66 20 -12.32 20 -13 20 C-13.66 19.34 -14.32 18.68 -15 18 C-15 17.01 -15 16.02 -15 15 C-14.34 15 -13.68 15 -13 15 C-13.33 14.01 -13.66 13.02 -14 12 C-12.02 11.67 -10.04 11.34 -8 11 C-8 10.34 -8 9.68 -8 9 C-9.75 7.65 -11.6 6.5 -13.47 5.32 C-13.97 4.88 -14.48 4.45 -15 4 C-15 3.01 -15 2.02 -15 1 C-12.78 -0.11 -11.09 -0.34 -8.62 -0.62 C-7.85 -0.72 -7.08 -0.82 -6.29 -0.91 C-3.97 -1 -2.21 -0.68 0 0 Z " fill="#E2E2E2" transform="translate(35,579)"/>
<path d="M0 0 C3.15 -0.03 6.29 -0.05 9.44 -0.06 C10.34 -0.07 11.23 -0.08 12.16 -0.09 C13.01 -0.09 13.87 -0.09 14.75 -0.1 C15.93 -0.11 15.93 -0.11 17.14 -0.11 C19 0 19 0 20 1 C20.36 8.46 20.36 8.46 18 12 C17.01 12.33 16.02 12.66 15 13 C15 12.34 15 11.68 15 11 C14.07 10.96 13.14 10.92 12.19 10.88 C11.14 10.59 10.08 10.3 9 10 C7.93 8.03 6.93 6.03 6 4 C3.92 3.04 3.92 3.04 2 3 C2 2.34 2 1.68 2 1 C1.34 0.67 0.68 0.34 0 0 Z " fill="#262729" transform="translate(16,752)"/>
<path d="M0 0 C0.33 0.99 0.66 1.98 1 3 C1.66 3 2.32 3 3 3 C3.33 2.01 3.66 1.02 4 0 C8.29 0 12.58 0 17 0 C18.87 5.49 19.24 10.22 19 16 C16.51 12.76 14.25 9.41 12 6 C9.55 6.11 9.55 6.11 7 7 C5.63 9.48 5.63 9.48 5 12 C2.59 11.04 1.24 10.35 -0.25 8.19 C-1.12 5.65 -1.22 3.66 -1 1 C-0.67 0.67 -0.34 0.34 0 0 Z " fill="#E3E3E3" transform="translate(21,596)"/>
<path d="M0 0 C1.49 0.02 1.49 0.02 3.02 0.03 C4.63 0.04 4.63 0.04 6.28 0.05 C7.4 0.07 8.53 0.08 9.69 0.1 C11.4 0.12 11.4 0.12 13.14 0.13 C15.95 0.15 18.76 0.19 21.57 0.23 C20.69 5.1 20.69 5.1 19.57 6.23 C17.86 6.31 16.15 6.33 14.44 6.32 C12.89 6.32 12.89 6.32 11.31 6.31 C10.22 6.31 9.13 6.3 8.01 6.29 C6.37 6.28 6.37 6.28 4.7 6.28 C1.99 6.26 -0.72 6.25 -3.43 6.23 C-4.06 4.35 -4.06 4.35 -4.43 2.23 C-2.43 0.23 -2.43 0.23 0 0 Z " fill="#E3E3E3" transform="translate(21.43017578125,630.77294921875)"/>
<path d="M0 0 C1.88 1.56 1.88 1.56 3 4 C3.19 7.75 3.19 7.75 3 11 C0.69 11.66 -1.62 12.32 -4 13 C-4 12.34 -4 11.68 -4 11 C-7.63 11 -11.26 11 -15 11 C-15 10.01 -15 9.02 -15 8 C-13.35 7.67 -11.7 7.34 -10 7 C-9.57 5.55 -9.57 5.55 -9.12 4.06 C-7.36 -0.75 -4.82 -0.49 0 0 Z " fill="#4D4F4F" transform="translate(33,724)"/>
<path d="M0 0 C2.13 1.85 3.38 3.62 5 6 C5 6.99 5 7.98 5 9 C3.68 8.34 2.36 7.68 1 7 C1 6.34 1 5.68 1 5 C0.34 5 -0.32 5 -1 5 C-1.33 6.65 -1.66 8.3 -2 10 C-4.91 10.81 -6.46 11.22 -9.31 10.06 C-9.87 9.71 -10.43 9.36 -11 9 C-11.25 3.38 -11.25 3.38 -9 0 C-5.35 -1.22 -3.68 -1.1 0 0 Z " fill="#616262" transform="translate(31,529)"/>
<path d="M0 0 C-0.33 0.99 -0.66 1.98 -1 3 C-1.99 3 -2.98 3 -4 3 C-4 3.66 -4 4.32 -4 5 C-4.66 5 -5.32 5 -6 5 C-4.56 8.37 -2.67 10.51 0 13 C-0.33 13.66 -0.66 14.32 -1 15 C-6.7 12.74 -12.38 10.45 -18 8 C-18 7.01 -18 6.02 -18 5 C-16.03 4.27 -14.06 3.53 -12.09 2.8 C-10.48 2.18 -8.89 1.51 -7.31 0.81 C-4.74 -0.09 -2.7 -0.15 0 0 Z " fill="#2C2D2F" transform="translate(37,766)"/>
<path d="M0 0 C0.78 0.25 1.57 0.5 2.38 0.75 C3.79 3.58 3.69 5.62 3.38 8.75 C1.75 10.69 1.75 10.69 -0.62 11.75 C-5.47 11.65 -8.23 10.15 -11.62 6.75 C-12.44 4.5 -12.44 4.5 -12.62 2.75 C-11.64 2.42 -10.64 2.09 -9.62 1.75 C-8.94 2.49 -8.94 2.49 -8.25 3.25 C-6.75 4.98 -6.75 4.98 -4.62 4.75 C-4.95 3.76 -5.29 2.77 -5.62 1.75 C-2.62 -0.25 -2.62 -0.25 0 0 Z " fill="#646565" transform="translate(32.625,542.25)"/>
<path d="M0 0 C1.88 2.19 1.88 2.19 3 5 C2.1 8.85 1.35 9.77 -2 12 C-5.5 11.19 -5.5 11.19 -9 10 C-9.99 9.67 -10.98 9.34 -12 9 C-13.19 5.94 -13.19 5.94 -14 3 C-11 3 -11 3 -8 5 C-7.57 4.04 -7.57 4.04 -7.12 3.06 C-5.23 -0.41 -4.02 0 0 0 Z " fill="#666767" transform="translate(34,514)"/>
<path d="M0 0 C2.56 0.31 2.56 0.31 4.38 1.38 C6.21 4.37 5.87 6.89 5.56 10.31 C3.56 12.31 3.56 12.31 0.69 12.62 C-2.79 12.28 -4.15 11.95 -6.44 9.31 C-6.69 6.12 -6.69 6.12 -6.44 3.31 C-5.78 2.98 -5.12 2.65 -4.44 2.31 C-2.44 0.31 -2.44 0.31 0 0 Z " fill="#4B4D4D" transform="translate(30.4375,669.6875)"/>
<path d="M0 0 C3.56 1 3.56 1 6.06 3.88 C7.56 7 7.56 7 6.56 10 C5.06 8.62 5.06 8.62 3.56 7 C3.56 6.34 3.56 5.68 3.56 5 C2.9 5 2.24 5 1.56 5 C1.58 5.8 1.6 6.61 1.62 7.44 C1.56 10 1.56 10 0.56 11 C-3.47 11.26 -5 11.29 -8.44 9 C-8.62 5.88 -8.62 5.88 -8.44 3 C-7.78 2.67 -7.12 2.34 -6.44 2 C-3.44 0 -3.44 0 0 0 Z " fill="#636464" transform="translate(28.4375,500)"/>
<path d="M0 0 C3.56 0.25 3.56 0.25 7 1 C8.4 3.8 8.25 5.9 8 9 C6.88 10.94 6.88 10.94 5 12 C1.15 11.76 -0.76 11.16 -4 9 C-4.19 5.88 -4.19 5.88 -4 3 C-3.34 2.67 -2.68 2.34 -2 2 C-1.34 1.34 -0.68 0.68 0 0 Z " fill="#4B4D4D" transform="translate(28,738)"/>
<path d="M0 0 C0 0.66 0 1.32 0 2 C0.66 2.33 1.32 2.66 2 3 C0.68 3.33 -0.64 3.66 -2 4 C-2.33 6.31 -2.66 8.62 -3 11 C-7.43 9.52 -11.63 7.27 -15 4 C-15 3.01 -15 2.02 -15 1 C-12.78 -0.11 -11.09 -0.34 -8.62 -0.62 C-7.85 -0.72 -7.08 -0.82 -6.29 -0.91 C-3.97 -1 -2.21 -0.68 0 0 Z " fill="#5B5C5D" transform="translate(35,579)"/>
<path d="M0 0 C0.33 0.66 0.66 1.32 1 2 C4.99 3 8.03 3.05 12 2 C11.34 3.65 10.68 5.3 10 7 C10.99 7.99 11.98 8.98 13 10 C12 11 12 11 8.18 11.1 C6.6 11.09 5.02 11.08 3.44 11.06 C2.63 11.06 1.82 11.05 0.99 11.05 C-1 11.04 -3 11.02 -5 11 C-5.33 9.35 -5.66 7.7 -6 6 C-5.01 6.5 -5.01 6.5 -4 7 C-1.99 6.72 0.01 6.39 2 6 C1.34 5.01 0.68 4.02 0 3 C0 2.01 0 1.02 0 0 Z " fill="#4E5050" transform="translate(24,645)"/>
<path d="M0 0 C2.75 -0.38 2.75 -0.38 5 0 C8.08 5.42 8.08 5.42 7.69 8.38 C7.46 8.91 7.23 9.45 7 10 C6.01 9.67 5.02 9.34 4 9 C3.67 7.35 3.34 5.7 3 4 C0.13 6.72 0.13 6.72 -2 10 C-5.38 9.69 -5.38 9.69 -9 9 C-11 6 -11 6 -10.62 3.31 C-10.42 2.55 -10.21 1.79 -10 1 C-9.01 1.33 -8.02 1.66 -7 2 C-6.31 4.06 -6.31 4.06 -6 6 C-5.34 6 -4.68 6 -4 6 C-3.4 5.01 -2.8 4.02 -2.19 3 C-1.1 1.51 -1.1 1.51 0 0 Z " fill="#4B4D4D" transform="translate(29,692)"/>
<path d="M0 0 C3.63 0 7.26 0 11 0 C14 5.75 14 5.75 14 8 C12.68 8 11.36 8 10 8 C10 7.34 10 6.68 10 6 C5.05 6.33 0.1 6.66 -5 7 C-4.34 5.68 -3.68 4.36 -3 3 C-2.34 3 -1.68 3 -1 3 C-0.67 2.01 -0.34 1.02 0 0 Z " fill="#E2E2E2" transform="translate(25,573)"/>
<path d="M0 0 C4.46 -0.39 7.17 0.75 11 3 C12.88 4.69 12.88 4.69 14 6 C13.34 6 12.68 6 12 6 C12 6.66 12 7.32 12 8 C12.66 8.66 13.32 9.32 14 10 C10.3 10.95 7.7 10.95 4 10 C4 9.34 4 8.68 4 8 C3.01 8 2.02 8 1 8 C1.33 7.01 1.66 6.02 2 5 C1.34 4.67 0.68 4.34 0 4 C0 2.68 0 1.36 0 0 Z " fill="#4A4B4C" transform="translate(21,613)"/>
<path d="M0 0 C3.08 5.42 3.08 5.42 2.69 8.38 C2.46 8.91 2.23 9.45 2 10 C-0.53 8.74 -0.76 7.47 -2 5 C-2.66 4.67 -3.32 4.34 -4 4 C-4.33 5.32 -4.66 6.64 -5 8 C-7 8 -7 8 -8.62 6.5 C-9.08 6 -9.53 5.51 -10 5 C-10.33 6.98 -10.66 8.96 -11 11 C-12.56 9.88 -12.56 9.88 -14 8 C-13.57 2.57 -13.57 2.57 -12 1 C-9.67 1 -7.33 1 -5 1 C-3 0 -3 0 0 0 Z " fill="#4D4F4F" transform="translate(34,556)"/>
<path d="M0 0 C1.94 0.94 1.94 0.94 3.19 3.5 C3.44 4.3 3.68 5.11 3.94 5.94 C4.27 4.29 4.6 2.64 4.94 0.94 C5.6 1.27 6.26 1.6 6.94 1.94 C7.06 4.81 7.06 4.81 6.94 7.94 C4.94 9.94 4.94 9.94 1.5 10.19 C-2.06 9.94 -2.06 9.94 -5.06 7.94 C-5.44 4.94 -5.44 4.94 -5.06 1.94 C-2.06 -0.06 -2.06 -0.06 0 0 Z " fill="#545656" transform="translate(29.0625,711.0625)"/>
<path d="M0 0 C2.67 1.17 3.64 2.3 5 4.88 C4.69 7.62 4.69 7.62 4 9.88 C3.01 9.54 2.02 9.22 1 8.88 C0.67 7.23 0.34 5.58 0 3.88 C-0.66 3.88 -1.32 3.88 -2 3.88 C-2.66 5.86 -3.32 7.84 -4 9.88 C-9.75 9 -9.75 9 -12 7.88 C-12 5.57 -12 3.25 -12 0.88 C-9.47 2.14 -9.24 3.4 -8 5.88 C-7.34 6.21 -6.68 6.53 -6 6.88 C-5.85 5.7 -5.85 5.7 -5.69 4.5 C-4.83 1.23 -3.55 -0.22 0 0 Z " fill="#4A4C4C" transform="translate(32,601.125)"/>
<path d="M0 0 C3.79 -0.06 7.58 -0.09 11.38 -0.12 C12.46 -0.14 13.54 -0.16 14.65 -0.18 C15.68 -0.18 16.71 -0.19 17.77 -0.2 C19.2 -0.21 19.2 -0.21 20.66 -0.23 C23 0 23 0 25 2 C24 3 24 3 21.78 3.11 C20.82 3.11 19.86 3.1 18.87 3.1 C17.32 3.09 17.32 3.09 15.74 3.09 C14.65 3.08 13.56 3.07 12.44 3.06 C10.8 3.06 10.8 3.06 9.13 3.05 C6.42 3.04 3.71 3.02 1 3 C0.67 2.01 0.34 1.02 0 0 Z " fill="#4A4C4C" transform="translate(17,634)"/>
<path d="M0 0 C1.74 0.35 1.74 0.35 3.52 0.7 C4.69 0.92 5.86 1.15 7.06 1.38 C7.95 1.57 8.85 1.76 9.77 1.95 C9.07 3.89 9.07 3.89 7.77 5.95 C3.21 7.43 -1.03 7.51 -5.36 5.52 C-5.98 5 -6.6 4.48 -7.23 3.95 C-4.86 0.87 -3.99 -0.06 0 0 Z " fill="#494B4B" transform="translate(27.234375,683.046875)"/>
<path d="M0 0 C1.17 -0.03 2.33 -0.05 3.53 -0.08 C5 0.08 5 0.08 6.5 0.25 C7.16 1.24 7.82 2.23 8.5 3.25 C7.65 3.3 6.79 3.35 5.91 3.4 C4.81 3.47 3.7 3.55 2.56 3.62 C1.46 3.69 0.36 3.76 -0.78 3.84 C-2.13 4.04 -2.13 4.04 -3.5 4.25 C-3.83 4.91 -4.16 5.57 -4.5 6.25 C-5.16 6.25 -5.82 6.25 -6.5 6.25 C-7.16 5.59 -7.82 4.93 -8.5 4.25 C-8.5 3.26 -8.5 2.27 -8.5 1.25 C-5.66 -0.17 -3.17 0.04 0 0 Z " fill="#333435" transform="translate(28.5,592.75)"/>
<path d="M0 0 C1.19 0.01 2.38 0.02 3.6 0.03 C4.52 0.04 5.43 0.05 6.38 0.06 C6.7 1.05 7.03 2.04 7.38 3.06 C6.59 3.11 5.81 3.16 5 3.21 C3.99 3.29 2.98 3.36 1.94 3.44 C0.93 3.51 -0.08 3.58 -1.12 3.65 C-2.36 3.85 -2.36 3.85 -3.62 4.06 C-3.95 4.72 -4.29 5.38 -4.62 6.06 C-5.29 6.06 -5.95 6.06 -6.62 6.06 C-6.62 5.4 -6.62 4.74 -6.62 4.06 C-7.29 4.06 -7.95 4.06 -8.62 4.06 C-8.62 3.07 -8.62 2.08 -8.62 1.06 C-5.74 -0.38 -3.21 -0.03 0 0 Z " fill="#3A3C3D" transform="translate(28.625,569.9375)"/>
<path d="M0 0 C3 2 3 2 5 5 C7.06 5.72 7.06 5.72 9 6 C9.33 4.02 9.66 2.04 10 0 C10.66 0 11.32 0 12 0 C12.36 5.38 12.36 5.38 10.88 7.94 C8.01 9.56 6.09 8.84 3 8 C2.01 7.34 1.02 6.68 0 6 C-0.19 2.88 -0.19 2.88 0 0 Z " fill="#4A4C4C" transform="translate(24,659)"/>
<path d="M0 0 C2.38 0.25 2.38 0.25 5 1 C6.31 3.06 6.31 3.06 7 5 C6.01 5.66 5.02 6.32 4 7 C2.02 6.01 0.04 5.02 -2 4 C-1.34 2.68 -0.68 1.36 0 0 Z " fill="#DBDBDB" transform="translate(28,741)"/>
<path d="M0 0 C1.69 2 1.69 2 3 4 C2.67 4.66 2.34 5.32 2 6 C-2.55 6.37 -2.55 6.37 -4.81 4.5 C-5.2 4 -5.6 3.51 -6 3 C-3.38 0 -3.38 0 0 0 Z " fill="#E3E3E3" transform="translate(32,673)"/>
<path d="M0 0 C1.32 0 2.64 0 4 0 C4.66 1.65 5.32 3.3 6 5 C4.02 5 2.04 5 0 5 C-0.56 3.06 -0.56 3.06 -1 1 C-0.67 0.67 -0.34 0.34 0 0 Z " fill="#E3E3E3" transform="translate(28,727)"/>
<path d="M0 0 C1.75 1.38 1.75 1.38 3 3 C3 3.33 3 3.66 3 4 C0.36 4.33 -2.28 4.66 -5 5 C-5 4.34 -5 3.68 -5 3 C-5.99 2.67 -6.98 2.34 -8 2 C-6.67 1.67 -5.33 1.33 -4 1 C-3.32 0.75 -2.64 0.5 -1.94 0.25 C-0.98 0.13 -0.98 0.13 0 0 Z " fill="#E3E3E3" transform="translate(24,648)"/>
<path d="M0 0 C1.32 1.32 2.64 2.64 4 4 C3.67 4.66 3.34 5.32 3 6 C1.02 5.34 -0.96 4.68 -3 4 C-3 3.01 -3 2.02 -3 1 C-2.01 0.67 -1.02 0.34 0 0 Z " fill="#646666" transform="translate(30,755)"/>
</svg>
