<svg width="26" height="26" viewBox="0 0 26 26" fill="none" xmlns="http://www.w3.org/2000/svg">
<path d="M13.1477 0C6.09707 0 0.36084 5.73623 0.36084 12.7869C0.36084 19.837 6.09707 25.5738 13.1477 25.5738C20.1979 25.5738 25.9346 19.837 25.9346 12.7869C25.9346 5.73623 20.1989 0 13.1477 0ZM18.852 9.86031C18.8577 9.98702 18.8608 10.1148 18.8608 10.2425C18.8608 14.1317 15.9012 18.6148 10.4864 18.6148C8.82431 18.6148 7.27707 18.1291 5.975 17.2937C6.20523 17.321 6.43958 17.3349 6.67702 17.3349C8.05635 17.3349 9.32495 16.8641 10.3324 16.075C9.04476 16.0513 7.95746 15.2005 7.58301 14.0308C7.76226 14.0647 7.94716 14.0838 8.13619 14.0838C8.40454 14.0838 8.66516 14.0488 8.91187 13.9813C7.5655 13.7114 6.55135 12.5221 6.55135 11.0954C6.55135 11.0831 6.55135 11.0702 6.55186 11.0583C6.94846 11.2783 7.40223 11.4112 7.88433 11.4261C7.09525 10.8992 6.57556 9.99784 6.57556 8.97699C6.57556 8.4372 6.72029 7.93141 6.9737 7.4967C8.42462 9.27778 10.5941 10.449 13.0396 10.5726C12.9891 10.3568 12.9638 10.1328 12.9638 9.90152C12.9638 8.2765 14.2814 6.95846 15.9064 6.95846C16.7531 6.95846 17.517 7.31592 18.0547 7.88763C18.7258 7.75578 19.3542 7.51164 19.9244 7.17324C19.7029 7.86085 19.2378 8.4372 18.6285 8.80186C19.2244 8.73079 19.793 8.57318 20.3189 8.33883C19.9264 8.92805 19.4273 9.44672 18.852 9.86031Z" fill="white"/>
</svg>
