<svg width="26" height="26" viewBox="0 0 26 26" fill="none" xmlns="http://www.w3.org/2000/svg">
<g clipPath="url(#clip0_118_453)">
<path d="M12.7869 0C5.73623 0 0 5.73623 0 12.7869C0 19.837 5.73623 25.5738 12.7869 25.5738C19.837 25.5738 25.5738 19.837 25.5738 12.7869C25.5738 5.73623 19.8381 0 12.7869 0ZM15.9669 13.237H13.8865V20.6519H10.8039C10.8039 20.6519 10.8039 16.6004 10.8039 13.237H9.33856V10.6164H10.8039V8.92136C10.8039 7.70736 11.3808 5.81039 13.9149 5.81039L16.1992 5.81915V8.36303C16.1992 8.36303 14.8111 8.36303 14.5412 8.36303C14.2713 8.36303 13.8876 8.49798 13.8876 9.07691V10.6169H16.2362L15.9669 13.237Z" fill="white"/>
</g>
<defs>
<clipPath id="clip0_118_453">
<rect width="25.5738" height="25.5738" fill="white"/>
</clipPath>
</defs>
</svg>
