<svg width="26" height="26" viewBox="0 0 26 26" fill="none" xmlns="http://www.w3.org/2000/svg">
<path d="M13.2132 0C6.15223 0 0.42627 5.72596 0.42627 12.7869C0.42627 19.8478 6.15223 25.5738 13.2132 25.5738C20.2741 25.5738 26 19.8478 26 12.7869C26 5.72596 20.2741 0 13.2132 0ZM20.5113 15.8141C20.4758 16.5957 20.3515 17.1293 20.1701 17.5964C19.7886 18.5827 19.009 19.3624 18.0227 19.7438C17.5558 19.9253 17.0219 20.0494 16.2405 20.0851C15.4575 20.1208 15.2074 20.1294 13.2134 20.1294C11.2191 20.1294 10.9692 20.1208 10.186 20.0851C9.40456 20.0494 8.87073 19.9253 8.40383 19.7438C7.91371 19.5594 7.47002 19.2705 7.10321 18.8968C6.72977 18.5302 6.4408 18.0863 6.25642 17.5964C6.07497 17.1295 5.95068 16.5957 5.91517 15.8142C5.87908 15.0311 5.87069 14.7809 5.87069 12.7869C5.87069 10.7928 5.87908 10.5427 5.91498 9.75972C5.95049 8.9781 6.07458 8.44446 6.25603 7.97737C6.44041 7.48744 6.72957 7.04356 7.10321 6.67694C7.46983 6.3033 7.91371 6.01434 8.40363 5.82996C8.87073 5.6485 9.40437 5.52441 10.186 5.48871C10.969 5.453 11.2191 5.44442 13.2132 5.44442C15.2072 5.44442 15.4573 5.453 16.2403 5.4889C17.0219 5.52441 17.5556 5.6485 18.0227 5.82976C18.5126 6.01414 18.9565 6.3033 19.3233 6.67694C19.6967 7.04375 19.9859 7.48744 20.1701 7.97737C20.3517 8.44446 20.4758 8.9781 20.5115 9.75972C20.5472 10.5427 20.5556 10.7928 20.5556 12.7869C20.5556 14.7809 20.5472 15.0311 20.5113 15.8141Z" fill="white"/>
</svg>
