<svg width="26" height="26" viewBox="0 0 26 26" fill="none" xmlns="http://www.w3.org/2000/svg">
<g clipPath="url(#clip0_118_599)">
<path d="M15.6606 12.7868C15.6606 14.1386 14.5649 15.2343 13.2131 15.2343C11.8614 15.2343 10.7656 14.1386 10.7656 12.7868C10.7656 11.4351 11.8614 10.3394 13.2131 10.3394C14.5649 10.3394 15.6606 11.4351 15.6606 12.7868Z" fill="white"/>
<path d="M18.9369 8.45667C18.8193 8.13785 18.6316 7.84928 18.3877 7.61241C18.1508 7.36852 17.8624 7.18083 17.5434 7.06317C17.2847 6.96269 16.896 6.84309 16.1802 6.8105C15.4058 6.77519 15.1736 6.76758 13.2131 6.76758C11.2524 6.76758 11.0202 6.77499 10.246 6.81031C9.53015 6.84309 9.14129 6.96269 8.88276 7.06317C8.56376 7.18083 8.27518 7.36852 8.03851 7.61241C7.79462 7.84928 7.60692 8.13766 7.48908 8.45667C7.38859 8.71539 7.26899 9.10424 7.23641 9.82011C7.20109 10.5943 7.19348 10.8265 7.19348 12.7872C7.19348 14.7477 7.20109 14.9799 7.23641 15.7543C7.26899 16.4701 7.38859 16.8588 7.48908 17.1175C7.60692 17.4365 7.79443 17.7249 8.03832 17.9618C8.27518 18.2057 8.56356 18.3933 8.88257 18.511C9.14129 18.6117 9.53015 18.7313 10.246 18.7639C11.0202 18.7992 11.2522 18.8066 13.2129 18.8066C15.1738 18.8066 15.406 18.7992 16.18 18.7639C16.8958 18.7313 17.2847 18.6117 17.5434 18.511C18.1838 18.264 18.6899 17.7579 18.9369 17.1175C19.0374 16.8588 19.157 16.4701 19.1898 15.7543C19.2251 14.9799 19.2325 14.7477 19.2325 12.7872C19.2325 10.8265 19.2251 10.5943 19.1898 9.82011C19.1572 9.10424 19.0376 8.71539 18.9369 8.45667ZM13.2131 16.5573C11.1307 16.5573 9.44254 14.8694 9.44254 12.787C9.44254 10.7046 11.1307 9.01664 13.2131 9.01664C15.2953 9.01664 16.9834 10.7046 16.9834 12.787C16.9834 14.8694 15.2953 16.5573 13.2131 16.5573ZM17.1325 9.7487C16.6459 9.7487 16.2514 9.35418 16.2514 8.86757C16.2514 8.38096 16.6459 7.98645 17.1325 7.98645C17.6191 7.98645 18.0136 8.38096 18.0136 8.86757C18.0134 9.35418 17.6191 9.7487 17.1325 9.7487Z" fill="white"/>
<path d="M13.2131 0C6.15217 0 0.426208 5.72596 0.426208 12.7869C0.426208 19.8478 6.15217 25.5738 13.2131 25.5738C20.274 25.5738 26 19.8478 26 12.7869C26 5.72596 20.274 0 13.2131 0ZM20.5113 15.8141C20.4758 16.5957 20.3515 17.1293 20.17 17.5964C19.7886 18.5827 19.0089 19.3624 18.0226 19.7438C17.5557 19.9253 17.0219 20.0494 16.2405 20.0851C15.4575 20.1208 15.2073 20.1294 13.2133 20.1294C11.219 20.1294 10.9691 20.1208 10.1859 20.0851C9.4045 20.0494 8.87067 19.9253 8.40377 19.7438C7.91365 19.5594 7.46996 19.2705 7.10315 18.8968C6.7297 18.5302 6.44074 18.0863 6.25636 17.5964C6.07491 17.1295 5.95062 16.5957 5.91511 15.8142C5.87901 15.0311 5.87062 14.7809 5.87062 12.7869C5.87062 10.7928 5.87901 10.5427 5.91492 9.75972C5.95043 8.9781 6.07452 8.44446 6.25597 7.97737C6.44035 7.48744 6.72951 7.04356 7.10315 6.67694C7.46977 6.3033 7.91365 6.01434 8.40357 5.82996C8.87067 5.6485 9.4043 5.52441 10.1859 5.48871C10.9689 5.453 11.219 5.44442 13.2131 5.44442C15.2071 5.44442 15.4573 5.453 16.2403 5.4889C17.0219 5.52441 17.5555 5.6485 18.0226 5.82976C18.5125 6.01414 18.9564 6.3033 19.3232 6.67694C19.6967 7.04375 19.9858 7.48744 20.17 7.97737C20.3517 8.44446 20.4758 8.9781 20.5115 9.75972C20.5472 10.5427 20.5556 10.7928 20.5556 12.7869C20.5556 14.7809 20.5472 15.0311 20.5113 15.8141Z" fill="white"/>
</g>
<defs>
<clipPath id="clip0_118_599">
<rect width="25.5738" height="25.5738" fill="white" transform="translate(0.426208)"/>
</clipPath>
</defs>
</svg>
