<svg width="31" height="21" viewBox="0 0 31 21" fill="none" xmlns="http://www.w3.org/2000/svg">
<path d="M30.0835 1.74279C30.0835 0.940706 29.4331 0.291748 28.6325 0.291748H16.9512C16.5664 0.291748 16.1973 0.444625 15.9252 0.716748C15.653 0.988871 15.5002 1.35795 15.5002 1.74279C15.5002 2.12763 15.653 2.49671 15.9252 2.76883C16.1973 3.04095 16.5664 3.19383 16.9512 3.19383H28.6325C29.0173 3.19383 29.3864 3.04095 29.6585 2.76883C29.9306 2.49671 30.0835 2.12763 30.0835 1.74279ZM30.0835 10.5001C30.0835 9.698 29.4331 9.04904 28.6325 9.04904H2.36787C1.98303 9.04904 1.61395 9.20192 1.34183 9.47404C1.06971 9.74616 0.916832 10.1152 0.916832 10.5001C0.916832 10.8849 1.06971 11.254 1.34183 11.5261C1.61395 11.7982 1.98303 11.9511 2.36787 11.9511H28.6325C29.0173 11.9511 29.3864 11.7982 29.6585 11.5261C29.9306 11.254 30.0835 10.8849 30.0835 10.5001ZM28.6325 17.8063C29.0173 17.8063 29.3864 17.9592 29.6585 18.2313C29.9306 18.5035 30.0835 18.8725 30.0835 19.2574C30.0835 19.6422 29.9306 20.0113 29.6585 20.2834C29.3864 20.5555 29.0173 20.7084 28.6325 20.7084H11.1179C10.733 20.7084 10.364 20.5555 10.0918 20.2834C9.81971 20.0113 9.66683 19.6422 9.66683 19.2574C9.66683 18.8725 9.81971 18.5035 10.0918 18.2313C10.364 17.9592 10.733 17.8063 11.1179 17.8063H28.6325Z" fill="white"/>
</svg>
