<svg id="_ëîé_1" data-name="‘ëîé_1" xmlns="http://www.w3.org/2000/svg" viewBox="0 0 1304 1292.02"><defs><style>.cls-1{fill:#333;}</style></defs><path class="cls-1" d="M1027.87,894.34l-8.43-13.43c5.68-3.57,6.15-15.44,6.15-28.34V709.89c0-16.36-1.08-25.78-6.78-28.71l7.23-14.1c15.41,7.9,15.41,28.07,15.41,42.81V852.57C1041.45,867.38,1041.45,885.81,1027.87,894.34Z" transform="translate(-348 -353.99)"/><path class="cls-1" d="M363.58,771C348,761.21,348,739.52,348,722.1V674.42c0-18.28,0-41,17.66-50.08l7.23,14.11c-7.6,3.89-9,15.65-9,36V722.1c0,16.6.62,30.73,8.16,35.47Z" transform="translate(-348 -353.99)"/><path class="cls-1" d="M363.58,936.93C348,927.15,348,905.46,348,888V840.35c0-18.27,0-41,17.66-50.07l7.23,14.11c-7.6,3.89-9,15.64-9,36V888c0,16.6.62,30.73,8.16,35.46Z" transform="translate(-348 -353.99)"/><path class="cls-1" d="M923.87,1646h-456a106.6,106.6,0,0,1-106.48-106.48V460.47A106.6,106.6,0,0,1,467.83,354h456a106.6,106.6,0,0,1,106.48,106.48V1539.53A106.6,106.6,0,0,1,923.87,1646Zm-456-1276.17a90.74,90.74,0,0,0-90.63,90.63V1539.53a90.74,90.74,0,0,0,90.63,90.63h456a90.74,90.74,0,0,0,90.63-90.63V460.47a90.74,90.74,0,0,0-90.63-90.63Z" transform="translate(-348 -353.99)"/><path class="cls-1" d="M923.67,1614.32H468A76.45,76.45,0,0,1,391.67,1538V462A76.45,76.45,0,0,1,468,385.68H923.67A76.45,76.45,0,0,1,1000,462V1538A76.45,76.45,0,0,1,923.67,1614.32ZM468,393.61A68.51,68.51,0,0,0,399.6,462V1538A68.51,68.51,0,0,0,468,1606.39H923.67A68.5,68.5,0,0,0,992.1,1538V462a68.5,68.5,0,0,0-68.43-68.43Z" transform="translate(-348 -353.99)"/><path class="cls-1" d="M1111.2,1632.44l13.42-8.43c3.57,5.68,15.44,6.15,28.35,6.15h142.67c16.36,0,25.78-1.08,28.71-6.79l14.11,7.24c-7.9,15.4-28.08,15.4-42.82,15.4H1153C1138.15,1646,1119.72,1646,1111.2,1632.44Z" transform="translate(-348 -353.99)"/><path class="cls-1" d="M1234.54,968.14c9.78-15.58,31.47-15.58,48.89-15.58h47.68c18.28,0,41,0,50.08,17.67l-14.11,7.23c-3.89-7.6-15.64-9-36-9h-47.68c-16.6,0-30.73.61-35.46,8.15Z" transform="translate(-348 -353.99)"/><path class="cls-1" d="M1068.6,968.14c9.79-15.58,31.47-15.58,48.9-15.58h47.68c18.27,0,41,0,50.07,17.67l-14.1,7.23c-3.9-7.6-15.65-9-36-9H1117.5c-16.61,0-30.74.61-35.47,8.15Z" transform="translate(-348 -353.99)"/><path class="cls-1" d="M1072.62,394a7.18,7.18,0,0,1,5.25-2.28,539.26,539.26,0,0,1,538.26,503.57,7.19,7.19,0,0,1-14.35,1,524.86,524.86,0,0,0-523.91-490.14,7.19,7.19,0,0,1-5.25-12.1Z" transform="translate(-348 -353.99)"/><path class="cls-1" d="M1565.37,855a7.19,7.19,0,0,1,10.17-.33l33.07,30.94,31-33.08a7.19,7.19,0,0,1,10.5,9.83l-35.86,38.33A7.18,7.18,0,0,1,1604,901l-38.33-35.85A7.2,7.2,0,0,1,1565.37,855Z" transform="translate(-348 -353.99)"/><path class="cls-1" d="M1545.06,965.92H1059.15v15.85h485.91a90.72,90.72,0,0,1,90.63,90.63v456a90.72,90.72,0,0,1-90.63,90.63H1033.23a135.48,135.48,0,0,1-13.52,15.85h525.35a106.59,106.59,0,0,0,106.48-106.48v-456A106.59,106.59,0,0,0,1545.06,965.92Z" transform="translate(-348 -353.99)"/><path class="cls-1" d="M1543.49,996.23H1059.15v7.93h484.34a68.5,68.5,0,0,1,68.43,68.43v455.65a68.5,68.5,0,0,1-68.43,68.43h-497c-1.25,2.69-2.6,5.33-4,7.93h501a76.45,76.45,0,0,0,76.36-76.36V1072.59A76.45,76.45,0,0,0,1543.49,996.23Z" transform="translate(-348 -353.99)"/></svg>